<?xml version="1.0" standalone="no"?>
<!DOCTYPE svg PUBLIC "-//W3C//DTD SVG 20010904//EN"
 "http://www.w3.org/TR/2001/REC-SVG-20010904/DTD/svg10.dtd">
<svg version="1.0" xmlns="http://www.w3.org/2000/svg"
 width="300.000000pt" height="207.000000pt" viewBox="0 0 300.000000 207.000000"
 preserveAspectRatio="xMidYMid meet">
<metadata>
Created by potrace 1.15, written by Peter Selinger 2001-2017
</metadata>
<g transform="translate(0.000000,207.000000) scale(0.100000,-0.100000)"
fill="#000000" stroke="none">
<path d="M1547 2050 c-274 -69 -507 -278 -600 -537 l-24 -67 -49 3 c-223 11
-448 -157 -502 -376 l-17 -71 -61 -5 c-118 -9 -215 -76 -266 -182 -74 -157 -6
-350 150 -427 46 -22 57 -23 372 -28 l325 -5 7 -48 c15 -109 98 -218 206 -273
l57 -29 850 0 850 0 45 30 c24 17 58 51 75 75 28 41 30 52 30 131 0 78 -3 90
-30 134 -38 62 -107 106 -175 113 -28 2 -50 8 -50 13 0 5 13 23 28 41 68 79
112 201 112 313 0 188 -93 346 -267 449 -1 1 -9 37 -18 81 -36 173 -117 321
-245 445 -94 92 -204 159 -330 201 -87 30 -107 33 -245 36 -124 2 -164 -1
-228 -17z m403 -111 c167 -46 334 -169 431 -317 65 -100 102 -204 124 -353 4
-29 13 -40 48 -59 143 -80 218 -201 218 -354 0 -76 -26 -165 -59 -207 l-18
-21 -28 41 c-56 81 -163 139 -274 148 -68 6 -69 6 -82 42 -75 216 -296 387
-530 410 -289 29 -555 -130 -663 -397 -14 -33 -28 -80 -32 -103 -6 -35 -20
-55 -84 -118 -60 -58 -82 -89 -98 -131 l-20 -55 -309 0 c-282 0 -312 2 -344
19 -68 36 -109 89 -125 163 -8 41 17 129 48 164 49 57 84 72 183 78 64 4 98
11 107 21 8 8 19 45 25 83 22 142 102 250 230 310 63 30 74 32 177 32 61 0
115 4 122 8 7 4 22 40 34 80 83 279 316 484 611 536 75 14 221 4 308 -20z
m-68 -803 c167 -58 283 -181 342 -363 10 -29 23 -56 29 -60 6 -4 52 -7 102 -7
79 -1 95 -4 136 -28 81 -47 130 -123 143 -220 4 -25 12 -51 19 -56 7 -5 43
-12 82 -15 44 -4 79 -13 94 -25 91 -67 89 -168 -3 -236 -27 -21 -35 -21 -829
-21 l-802 0 -57 28 c-141 69 -193 224 -123 362 28 55 48 75 138 137 12 9 23
38 32 86 40 211 192 376 400 433 88 24 200 18 297 -15z"/>
</g>
</svg>
