<?xml version="1.0" standalone="no"?>
<!DOCTYPE svg PUBLIC "-//W3C//DTD SVG 20010904//EN"
 "http://www.w3.org/TR/2001/REC-SVG-20010904/DTD/svg10.dtd">
<svg version="1.0" xmlns="http://www.w3.org/2000/svg"
 width="300.000000pt" height="209.000000pt" viewBox="0 0 300.000000 209.000000"
 preserveAspectRatio="xMidYMid meet">
<metadata>
Created by potrace 1.15, written by Peter Selinger 2001-2017
</metadata>
<g transform="translate(0.000000,209.000000) scale(0.100000,-0.100000)"
fill="#000000" stroke="none">
<path d="M1635 2074 c-164 -36 -306 -116 -436 -244 -103 -102 -161 -189 -209
-312 l-28 -73 -90 -6 c-148 -11 -251 -56 -348 -153 -80 -80 -118 -154 -148
-287 -5 -25 -10 -27 -68 -31 -117 -7 -224 -79 -279 -186 -21 -40 -24 -61 -24
-147 0 -86 3 -107 24 -147 57 -111 163 -179 289 -186 59 -4 77 -1 92 13 46 42
11 95 -62 95 -213 0 -318 244 -167 387 45 43 107 63 193 63 39 0 77 4 85 9 7
5 19 45 27 91 16 101 52 175 117 241 95 96 239 144 362 120 31 -6 56 -6 67 0
10 5 26 40 39 82 42 143 112 260 217 359 161 154 357 227 581 215 368 -19 670
-291 731 -657 6 -36 12 -74 15 -86 3 -12 26 -32 57 -49 248 -135 293 -467 89
-658 -65 -61 -135 -95 -223 -108 -107 -16 -118 -22 -118 -62 0 -45 15 -57 75
-57 219 1 425 160 489 379 18 62 21 203 5 271 -26 114 -113 238 -213 304 -46
31 -56 43 -62 74 -35 205 -120 371 -263 511 -95 94 -208 162 -343 209 -98 34
-111 36 -253 39 -108 2 -170 -2 -220 -13z"/>
<path d="M527 562 c-24 -5 -40 -48 -27 -73 11 -20 25 -24 105 -33 30 -4 87
-24 141 -51 172 -84 310 -83 484 3 94 47 96 47 195 47 99 0 101 0 200 -48 178
-86 311 -86 488 0 62 30 110 47 147 50 67 6 100 25 100 57 0 35 -24 49 -83 47
-73 -2 -120 -16 -212 -62 -89 -43 -172 -61 -244 -53 -25 3 -94 28 -152 56
-178 82 -310 83 -475 3 -166 -80 -240 -80 -405 -3 -103 47 -206 71 -262 60z"/>
<path d="M510 380 c-15 -15 -19 -28 -14 -43 10 -34 17 -38 92 -47 52 -7 95
-21 159 -54 168 -84 304 -83 479 1 98 48 100 48 200 48 100 0 102 -1 200 -47
177 -85 311 -85 481 -2 65 32 112 48 158 54 74 9 95 22 95 56 0 69 -131 64
-289 -12 -158 -76 -248 -76 -410 0 -171 82 -300 82 -472 0 -154 -74 -258 -75
-397 -5 -83 42 -127 55 -209 65 -45 6 -55 4 -73 -14z"/>
<path d="M506 197 c-18 -26 -11 -64 13 -71 9 -3 39 -8 66 -11 28 -4 100 -30
160 -58 l110 -52 130 0 130 0 110 52 c167 78 247 79 400 3 107 -53 156 -63
273 -58 92 3 103 6 197 51 66 31 125 52 174 60 46 8 78 18 84 28 16 25 0 68
-27 75 -50 12 -162 -15 -262 -63 -98 -48 -100 -48 -199 -48 -99 0 -101 1 -192
47 -176 88 -313 89 -491 1 -96 -48 -98 -48 -197 -48 -99 0 -101 1 -195 47
-138 68 -257 87 -284 45z"/>
</g>
</svg>
