<?xml version="1.0" standalone="no"?>
<!DOCTYPE svg PUBLIC "-//W3C//DTD SVG 20010904//EN"
 "http://www.w3.org/TR/2001/REC-SVG-20010904/DTD/svg10.dtd">
<svg version="1.0" xmlns="http://www.w3.org/2000/svg"
 width="300.000000pt" height="248.000000pt" viewBox="0 0 300.000000 248.000000"
 preserveAspectRatio="xMidYMid meet">
<metadata>
Created by potrace 1.15, written by Peter Selinger 2001-2017
</metadata>
<g transform="translate(0.000000,248.000000) scale(0.100000,-0.100000)"
fill="#000000" stroke="none">
<path d="M1464 2454 c-6 -25 76 -383 98 -426 11 -23 54 -34 73 -18 22 19 19
44 -30 243 -57 231 -56 227 -100 227 -29 0 -36 -4 -41 -26z"/>
<path d="M2046 2277 c-17 -12 -76 -194 -76 -234 0 -29 36 -54 64 -44 22 8 39
49 72 174 13 48 15 72 8 84 -15 24 -49 34 -68 20z"/>
<path d="M2481 2010 c-122 -120 -153 -155 -153 -177 0 -32 28 -55 56 -47 29 8
326 305 326 326 0 23 -27 48 -53 48 -14 -1 -76 -53 -176 -150z"/>
<path d="M1072 2028 c-28 -28 -12 -62 67 -145 80 -84 111 -99 139 -71 29 29
13 62 -71 146 -81 81 -110 95 -135 70z"/>
<path d="M1632 1900 c-202 -54 -380 -220 -439 -407 -13 -41 -25 -58 -55 -78
-51 -34 -147 -130 -185 -186 -36 -53 -86 -150 -102 -201 l-13 -38 -57 0 c-213
0 -400 -148 -446 -353 l-11 -52 -61 -6 c-100 -10 -192 -69 -236 -154 -29 -57
-36 -180 -12 -242 24 -62 88 -131 150 -159 l50 -24 1015 0 c1094 0 1048 -2
1156 53 61 31 149 118 179 177 111 219 49 475 -145 601 -65 42 -72 81 -30 171
38 80 60 181 60 273 0 280 -174 519 -447 616 -87 31 -273 36 -371 9z m307 -95
c287 -76 463 -365 395 -651 l-18 -77 -18 42 c-59 139 -206 286 -363 361 -125
60 -189 74 -345 74 -111 0 -147 -3 -205 -21 -38 -12 -71 -20 -73 -18 -9 9 74
118 125 165 61 56 127 93 213 121 68 22 214 24 289 4z m-133 -379 c249 -81
431 -305 469 -579 6 -45 9 -49 71 -88 75 -48 124 -108 155 -187 30 -81 24
-197 -15 -273 -56 -108 -153 -180 -272 -199 -87 -14 -1898 -13 -1965 1 -70 15
-132 76 -147 143 -17 81 13 159 79 203 33 22 56 28 123 32 46 4 90 12 98 19 9
7 18 38 22 70 14 123 95 235 211 289 53 25 71 28 160 28 55 0 105 3 111 7 6 4
23 46 39 93 59 182 199 337 375 417 48 21 87 34 165 52 11 3 70 3 130 2 86 -3
128 -9 191 -30z"/>
<path d="M616 1634 c-22 -21 -20 -61 3 -73 39 -21 414 -121 432 -116 23 8 36
52 22 74 -9 14 -392 131 -430 131 -6 0 -19 -7 -27 -16z"/>
<path d="M2650 1544 c-52 -14 -100 -30 -107 -36 -7 -6 -13 -24 -13 -39 0 -47
30 -52 151 -22 120 30 148 48 133 90 -13 37 -43 38 -164 7z"/>
<path d="M2535 1090 c-12 -13 -15 -27 -11 -44 7 -28 7 -28 288 -106 117 -32
152 -39 168 -30 23 12 28 61 7 78 -12 10 -399 122 -422 122 -7 0 -20 -9 -30
-20z"/>
</g>
</svg>
