<?xml version="1.0" standalone="no"?>
<!DOCTYPE svg PUBLIC "-//W3C//DTD SVG 20010904//EN"
 "http://www.w3.org/TR/2001/REC-SVG-20010904/DTD/svg10.dtd">
<svg version="1.0" xmlns="http://www.w3.org/2000/svg"
 width="300.000000pt" height="261.000000pt" viewBox="0 0 300.000000 261.000000"
 preserveAspectRatio="xMidYMid meet">
<metadata>
Created by potrace 1.15, written by Peter Selinger 2001-2017
</metadata>
<g transform="translate(0.000000,261.000000) scale(0.100000,-0.100000)"
fill="#000000" stroke="none">
<path d="M1635 2594 c-135 -29 -292 -109 -399 -203 -113 -100 -186 -204 -243
-346 l-32 -80 -93 -6 c-114 -8 -177 -27 -254 -77 -118 -77 -197 -188 -231
-327 l-16 -65 -53 0 c-81 0 -156 -33 -219 -95 -67 -67 -95 -137 -95 -235 0
-174 112 -303 286 -330 47 -7 424 -10 1179 -8 1044 3 1113 4 1164 22 172 57
307 193 355 356 10 32 16 91 16 145 0 148 -39 250 -136 355 -31 33 -76 72
-100 86 -35 21 -45 32 -50 62 -3 20 -14 69 -25 109 -83 317 -351 569 -679 639
-84 18 -285 17 -375 -2z m350 -109 c229 -48 433 -203 537 -409 44 -87 58 -130
77 -236 16 -89 19 -96 50 -115 171 -104 250 -239 239 -408 -9 -146 -99 -276
-236 -340 l-67 -32 -1166 0 -1165 0 -42 28 c-23 15 -54 46 -69 70 -24 36 -28
52 -28 117 0 66 4 80 28 117 16 23 47 54 70 69 36 24 55 28 138 33 54 3 103
11 111 19 9 7 18 38 22 74 19 162 116 291 264 350 48 18 77 22 177 23 l120 0
35 105 c43 126 92 210 174 298 110 117 261 205 410 237 82 18 235 18 321 0z"/>
<path d="M470 640 c-23 -14 -28 -371 -5 -406 16 -26 44 -31 76 -14 18 10 19
23 19 208 0 141 -3 201 -12 210 -14 14 -57 16 -78 2z"/>
<path d="M832 638 c-17 -17 -17 -609 0 -626 16 -16 70 -16 86 0 16 16 17 590
2 619 -12 22 -68 27 -88 7z"/>
<path d="M1199 633 c-10 -11 -14 -48 -14 -130 0 -103 2 -116 20 -129 29 -21
67 -14 82 16 19 38 17 210 -3 238 -18 26 -65 30 -85 5z"/>
<path d="M1560 631 c-6 -12 -10 -96 -10 -204 0 -165 2 -186 18 -200 23 -21 56
-22 76 -1 13 13 16 46 16 208 0 136 -3 195 -12 204 -20 20 -76 15 -88 -7z"/>
<path d="M1932 638 c-17 -17 -17 -609 0 -626 20 -20 76 -15 88 7 14 27 14 585
0 612 -12 22 -68 27 -88 7z"/>
<path d="M2296 628 c-12 -17 -16 -48 -16 -123 0 -75 4 -106 16 -123 16 -24 44
-28 75 -12 17 10 19 22 19 133 0 82 -4 127 -12 135 -20 20 -65 14 -82 -10z"/>
</g>
</svg>
