<?xml version="1.0" standalone="no"?>
<!DOCTYPE svg PUBLIC "-//W3C//DTD SVG 20010904//EN"
 "http://www.w3.org/TR/2001/REC-SVG-20010904/DTD/svg10.dtd">
<svg version="1.0" xmlns="http://www.w3.org/2000/svg"
 width="300.000000pt" height="345.000000pt" viewBox="0 0 300.000000 345.000000"
 preserveAspectRatio="xMidYMid meet">
<metadata>
Created by potrace 1.15, written by Peter Selinger 2001-2017
</metadata>
<g transform="translate(0.000000,345.000000) scale(0.100000,-0.100000)"
fill="#000000" stroke="none">
<path d="M1456 3434 c-14 -13 -16 -48 -16 -232 l0 -216 -100 98 c-90 89 -102
98 -127 92 -16 -4 -34 -14 -40 -23 -31 -40 -17 -63 127 -208 l140 -141 0 -235
0 -236 -211 -122 c-116 -66 -215 -121 -221 -121 -5 0 -100 53 -212 117 l-204
118 -47 175 c-26 96 -53 185 -61 198 -16 24 -52 29 -85 12 -26 -15 -25 -61 7
-177 14 -51 24 -98 22 -103 -2 -5 -81 36 -176 90 -95 55 -183 100 -196 100
-37 0 -58 -27 -54 -68 3 -35 6 -38 185 -141 100 -58 181 -106 179 -108 -2 -2
-55 -18 -117 -35 -63 -16 -122 -37 -131 -46 -22 -19 -23 -65 -2 -86 23 -24 52
-20 236 30 93 25 174 44 181 42 7 -2 101 -54 210 -116 l197 -113 0 -252 -1
-252 -206 -119 -206 -119 -173 47 c-190 50 -215 54 -238 30 -21 -21 -20 -67 2
-86 9 -9 68 -30 131 -46 62 -17 115 -32 116 -34 2 -2 -79 -50 -178 -108 -173
-101 -182 -107 -185 -139 -4 -39 20 -71 53 -71 18 0 220 109 350 190 l34 21
-29 -108 c-35 -130 -38 -178 -11 -193 33 -17 69 -12 85 12 8 13 35 102 61 200
l47 176 199 116 c109 64 202 117 207 118 5 2 107 -53 226 -121 l216 -124 0
-236 0 -235 -140 -141 c-144 -145 -158 -168 -127 -208 6 -9 24 -19 40 -23 25
-6 37 3 127 92 l100 98 0 -216 c0 -238 2 -248 60 -248 58 0 60 10 60 248 l0
216 100 -98 c90 -89 102 -98 127 -92 16 4 34 14 41 23 30 40 16 63 -128 208
l-140 141 0 235 0 235 207 120 c113 65 212 120 219 122 7 2 104 -50 217 -115
l205 -118 47 -175 c26 -96 53 -185 61 -197 16 -25 52 -30 85 -13 27 15 24 63
-10 191 l-29 105 181 -103 c99 -57 190 -103 202 -103 33 0 57 32 53 71 -3 31
-12 38 -185 138 -100 58 -181 106 -179 108 2 2 55 18 117 35 63 16 122 37 132
46 21 19 22 65 1 86 -23 24 -49 20 -233 -29 -92 -25 -172 -45 -178 -45 -6 0
-101 52 -212 116 l-201 116 0 252 1 251 206 119 207 118 171 -46 c187 -50 216
-54 239 -30 21 21 20 67 -1 86 -10 9 -69 30 -132 46 -62 17 -115 32 -116 34
-2 2 79 50 178 108 179 104 182 107 185 142 4 41 -17 68 -53 68 -20 0 -203
-100 -352 -191 l-32 -20 29 108 c35 130 38 178 11 193 -33 17 -69 12 -85 -12
-8 -13 -36 -103 -61 -200 l-47 -177 -201 -116 c-110 -64 -203 -117 -208 -118
-4 -1 -104 54 -223 122 l-216 125 0 235 0 235 140 141 c144 145 158 168 128
208 -7 9 -25 19 -41 23 -25 6 -37 -3 -127 -92 l-100 -98 0 216 c0 238 -2 248
-60 248 -16 0 -36 -7 -44 -16z m260 -1336 l214 -123 0 -247 0 -247 -27 -19
c-16 -10 -112 -67 -215 -126 l-188 -108 -215 124 -215 123 0 247 0 248 27 17
c33 22 397 232 402 233 2 0 100 -55 217 -122z"/>
</g>
</svg>
